<svg width="282" height="77" viewBox="0 0 282 77" fill="none" xmlns="http://www.w3.org/2000/svg">
<g clip-path="url(#clip0_87_4001)">
<g clip-path="url(#clip1_87_4001)">
<path d="M79.6054 73.1976H77.7331V76.8481H76.1147V66.9824H79.9537C81.8547 66.9824 83.2682 68.2853 83.2682 70.1044C83.2682 71.4482 82.4693 72.5216 81.2606 72.9682L83.5386 76.8481H81.7236L79.6013 73.1976H79.6054ZM77.7331 71.6817H79.8595C80.9329 71.6817 81.6212 71.018 81.6212 70.0921C81.6212 69.1661 80.9329 68.5024 79.8595 68.5024H77.7331V71.6858V71.6817Z" fill="#2BB0CA"/>
<path d="M92.0933 75.3199V76.8481H86.21V66.9824H91.9376V68.4983H87.8283V71.0754H91.573V72.5585H87.8283V75.3199H92.0933Z" fill="#2BB0CA"/>
<path d="M100.857 74.7013H96.4567L95.6168 76.8481H93.896L97.8619 66.9824H99.386L103.467 76.8481H101.709L100.857 74.7013ZM97.018 73.2509H100.296L98.6445 69.0924L97.018 73.2509Z" fill="#2BB0CA"/>
<path d="M111.554 75.3402V76.852H105.835V66.9863H107.453V75.3402H111.554Z" fill="#2BB0CA"/>
<path d="M122.813 75.3199V76.8481H116.93V66.9824H122.657V68.4983H118.548V71.0754H122.293V72.5585H118.548V75.3199H122.813Z" fill="#2BB0CA"/>
<path d="M125.046 73.7424H126.689C126.689 74.8445 127.598 75.455 128.754 75.455C129.803 75.455 130.7 74.9019 130.7 73.9964C130.7 73.0131 129.643 72.7673 128.455 72.4887C126.943 72.1241 125.214 71.7062 125.214 69.6699C125.214 67.8877 126.562 66.8389 128.664 66.8389C130.765 66.8389 132.072 68.0065 132.072 69.8666H130.47C130.47 68.8833 129.659 68.3507 128.627 68.3507C127.594 68.3507 126.832 68.8014 126.832 69.6044C126.832 70.5139 127.848 70.7638 129.016 71.0424C130.548 71.4235 132.355 71.8619 132.355 73.9841C132.355 75.9589 130.761 77.0078 128.766 77.0078C126.554 77.0078 125.046 75.7663 125.046 73.7506V73.7424Z" fill="#2BB0CA"/>
<path d="M141.426 68.4942H138.533V76.8481H136.915V68.4942H134.022V66.9824H141.426V68.4942Z" fill="#2BB0CA"/>
<path d="M148.862 74.7013H144.462L143.622 76.8481H141.901L145.867 66.9824H147.391L151.472 76.8481H149.714L148.862 74.7013ZM145.023 73.2509H148.301L146.65 69.0924L145.023 73.2509Z" fill="#2BB0CA"/>
<path d="M159.359 68.4942H156.466V76.8481H154.848V68.4942H151.956V66.9824H159.359V68.4942Z" fill="#2BB0CA"/>
<path d="M167.721 75.3199V76.8481H161.837V66.9824H167.565V68.4983H163.456V71.0754H167.2V72.5585H163.456V75.3199H167.721Z" fill="#2BB0CA"/>
<path d="M182.073 70.2437C182.073 72.1078 180.63 73.5008 178.709 73.5008H176.681V76.8481H175.062V66.9824H178.709C180.618 66.9824 182.073 68.3672 182.073 70.2396V70.2437ZM180.426 70.2437C180.426 69.2522 179.688 68.5229 178.631 68.5229H176.681V71.9685H178.631C179.688 71.9685 180.426 71.2393 180.426 70.2478V70.2437Z" fill="#2BB0CA"/>
<path d="M189.837 74.7013H185.437L184.597 76.8481H182.876L186.842 66.9824H188.366L192.447 76.8481H190.689L189.837 74.7013ZM185.998 73.2509H189.276L187.624 69.0924L185.998 73.2509Z" fill="#2BB0CA"/>
<path d="M198.305 73.1976H196.433V76.8481H194.814V66.9824H198.653C200.554 66.9824 201.968 68.2853 201.968 70.1044C201.968 71.4482 201.169 72.5216 199.96 72.9682L202.238 76.8481H200.423L198.301 73.1976H198.305ZM196.433 71.6817H198.559C199.633 71.6817 200.321 71.018 200.321 70.0921C200.321 69.1661 199.633 68.5024 198.559 68.5024H196.433V71.6858V71.6817Z" fill="#2BB0CA"/>
<path d="M211.19 68.4942H208.298V76.8481H206.68V68.4942H203.787V66.9824H211.19V68.4942Z" fill="#2BB0CA"/>
<path d="M221.736 66.9824V76.8481H220.376L215.251 69.8053V76.8481H213.665V66.9824H215.128L220.147 73.9105V66.9824H221.732H221.736Z" fill="#2BB0CA"/>
<path d="M231.053 75.3199V76.8481H225.169V66.9824H230.897V68.4983H226.788V71.0754H230.532V72.5585H226.788V75.3199H231.053Z" fill="#2BB0CA"/>
<path d="M237.416 73.1976H235.544V76.8481H233.925V66.9824H237.764C239.665 66.9824 241.079 68.2853 241.079 70.1044C241.079 71.4482 240.28 72.5216 239.071 72.9682L241.349 76.8481H239.534L237.412 73.1976H237.416ZM235.544 71.6817H237.67C238.743 71.6817 239.432 71.018 239.432 70.0921C239.432 69.1661 238.743 68.5024 237.67 68.5024H235.544V71.6858V71.6817Z" fill="#2BB0CA"/>
<path d="M243.377 73.7424H245.02C245.02 74.8445 245.929 75.455 247.085 75.455C248.134 75.455 249.031 74.9019 249.031 73.9964C249.031 73.0131 247.974 72.7673 246.786 72.4887C245.274 72.1241 243.545 71.7062 243.545 69.6699C243.545 67.8877 244.893 66.8389 246.995 66.8389C249.096 66.8389 250.403 68.0065 250.403 69.8666H248.801C248.801 68.8833 247.99 68.3507 246.958 68.3507C245.925 68.3507 245.163 68.8014 245.163 69.6044C245.163 70.5139 246.179 70.7638 247.347 71.0424C248.879 71.4235 250.686 71.8619 250.686 73.9841C250.686 75.9589 249.092 77.0078 247.097 77.0078C244.885 77.0078 243.377 75.7663 243.377 73.7506V73.7424Z" fill="#2BB0CA"/>
<path d="M141.004 32.8298C138.832 34.7718 137.685 37.5947 137.685 40.9994V55.8184H142.696V40.9051C142.696 38.9181 143.278 37.3817 144.421 36.3328C145.715 35.1447 147.723 34.6325 150.226 34.8497L150.697 34.8907V30.3184L150.312 30.2733C146.621 29.8595 143.319 30.7649 141.008 32.8298H141.004ZM98.0258 38.1929L97.8496 38.1069L98.0135 38.0003C101.303 35.8207 101.562 32.5144 101.562 31.5516C101.562 25.9468 97.5382 22.3291 91.3066 22.3291H76.1147V55.8184H91.4049C97.9356 55.8184 102.5 51.7173 102.5 45.8421C102.5 42.2858 100.91 39.5695 98.0299 38.1929H98.0258ZM81.1746 26.9997H91.3066C94.7522 26.9997 96.5017 28.5157 96.5017 31.5024C96.5017 34.8251 93.896 36.0051 91.4541 36.0051H81.1746V26.9956V26.9997ZM91.6016 51.0986H81.1746V40.6798H91.4541C95.4242 40.6798 97.4399 42.4333 97.4399 45.8872C97.4399 49.0501 95.1497 51.0945 91.6016 51.0945V51.0986ZM125.931 45.8421C125.931 49.3246 123.526 51.664 119.945 51.664C116.364 51.664 113.91 49.3246 113.91 45.8421V30.7403H108.899V45.8421C108.899 51.9508 113.545 56.3838 119.945 56.3838C126.345 56.3838 130.991 51.9508 130.991 45.8421V30.7403H125.931V45.8421ZM165.787 40.2906C160.653 39.5162 159.74 38.9181 159.74 37.6152C159.74 35.96 162.087 34.6612 165.082 34.6612C168.077 34.6612 170.261 35.96 170.781 38.2298L170.859 38.5657H175.931L175.878 38.0864C175.317 33.1822 171.179 30.134 165.082 30.134C157.933 30.134 154.68 34.0876 154.68 37.7586C154.68 42.6177 158.621 44.1336 164.98 45.0022C171.515 45.8421 171.515 47.1654 171.515 48.3331C171.515 50.0784 169.474 51.8484 165.578 51.8484C162.067 51.8484 159.379 50.1563 158.896 47.6407L158.826 47.2883H153.729L153.795 47.78C154.504 53.0324 159.129 56.4289 165.578 56.4289C172.027 56.4289 176.427 53.0816 176.427 48.0996C176.427 41.8925 170.531 41.0035 165.791 40.2906H165.787ZM240.484 30.1299C237.858 30.1299 235.511 30.9739 233.696 32.5676L233.511 32.7274V30.7403H228.599V55.8143H233.659V40.5733C233.659 37.1481 236.281 34.6571 239.89 34.6571C243.5 34.6571 245.679 36.9597 245.679 40.6675V55.8143H250.69V40.8068C250.69 34.3171 246.683 30.1258 240.484 30.1258V30.1299ZM188.87 50.1891C188.042 49.4065 187.62 48.1815 187.62 46.5468V35.4151H193.397V30.7444H187.62V25.574H182.609V46.5509C182.609 49.6073 183.589 52.1024 185.445 53.7617C187.321 55.4415 190.017 56.1626 193.11 55.8184L193.495 55.7774V51.2666L193.036 51.2953C191.168 51.4059 189.763 51.0371 188.87 50.1973V50.1891ZM282.438 44.3426C282.463 40.2209 281.082 36.6442 278.452 33.9975C276.01 31.5434 272.63 30.134 269.172 30.134C261.883 30.134 255.955 36.0419 255.955 43.306C255.955 50.5701 261.867 56.3838 269.418 56.3838C274.449 56.3838 278.456 54.2656 280.709 50.4185L276.805 48.0791C275.432 50.4759 272.679 51.9016 269.418 51.9016C266.157 51.9016 261.973 49.7138 261.146 44.9039L261.125 44.7769H282.438V44.3467V44.3426ZM261.457 40.3356L261.51 40.1882C262.858 36.3615 266.427 34.6162 269.172 34.6162C272.527 34.6162 275.563 36.8532 276.735 40.1882L276.788 40.3356H261.457ZM210.236 30.134C202.824 30.134 197.019 35.9395 197.019 43.3552C197.019 50.7708 202.824 56.433 210.236 56.433C217.647 56.433 223.453 50.6889 223.453 43.3552C223.453 36.0215 217.647 30.134 210.236 30.134ZM210.236 51.7132C205.766 51.7132 202.128 47.9644 202.128 43.3552C202.128 38.746 205.766 34.8087 210.236 34.8087C214.706 34.8087 218.393 38.6436 218.393 43.3552C218.393 48.0668 214.734 51.7132 210.236 51.7132Z" fill="white"/>
<path d="M49.443 35.9311C43.9898 24.9388 34.4724 25.2583 32.4074 25.4673C40.3967 25.4714 46.87 31.9488 46.87 39.9422C46.87 47.9355 40.3885 54.417 32.3951 54.417C24.4018 54.417 17.9203 47.9355 17.9203 39.9422C17.9203 31.9488 24.4018 25.4673 32.3951 25.4673V0C15.2408 2.42545 -0.958952 16.8389 0.044826 38.2747C0.724937 52.7905 14.0281 68.1094 32.3992 66.9172C48.5662 65.8642 55.4779 48.1035 49.443 35.9352V35.9311Z" fill="#2BB0CA"/>
<path style="mix-blend-mode:multiply" d="M49.443 35.9311C43.9898 24.9388 34.4724 25.2583 32.4074 25.4673C40.3967 25.4714 46.87 31.9488 46.87 39.9422C46.87 47.9355 40.3885 54.417 32.3951 54.417C24.4018 54.417 17.9203 47.9355 17.9203 39.9422C17.9203 31.9488 24.4018 25.4673 32.3951 25.4673V0C15.2408 2.42545 -0.958952 16.8389 0.044826 38.2747C0.724937 52.7905 14.0281 68.1094 32.3992 66.9172C48.5662 65.8642 55.4779 48.1035 49.443 35.9352V35.9311Z" fill="url(#paint0_radial_87_4001)"/>
<path d="M32.3993 12.9668C17.5024 12.9668 5.42432 25.0449 5.42432 39.9418C5.42432 54.8387 17.5024 66.9168 32.3993 66.9168C47.2962 66.9168 59.3743 54.8387 59.3743 39.9418C59.3743 25.0449 47.2962 12.9668 32.3993 12.9668ZM32.3993 54.4167C24.406 54.4167 17.9244 47.9351 17.9244 39.9418C17.9244 31.9484 24.406 25.4669 32.3993 25.4669C40.3927 25.4669 46.8742 31.9484 46.8742 39.9418C46.8742 47.9351 40.3927 54.4167 32.3993 54.4167Z" fill="url(#paint1_linear_87_4001)"/>
</g>
</g>
<defs>
<radialGradient id="paint0_radial_87_4001" cx="0" cy="0" r="1" gradientUnits="userSpaceOnUse" gradientTransform="translate(12.168 60.6323) scale(43.3058 43.3058)">
<stop stop-color="#081F53"/>
<stop offset="0.18" stop-color="#081F53" stop-opacity="0.8"/>
<stop offset="0.73" stop-color="#081F53" stop-opacity="0.22"/>
<stop offset="1" stop-color="#081F53" stop-opacity="0"/>
</radialGradient>
<linearGradient id="paint1_linear_87_4001" x1="32.3993" y1="13.0856" x2="32.3993" y2="67.2486" gradientUnits="userSpaceOnUse">
<stop stop-color="#33B5E8"/>
<stop offset="1" stop-color="#33B5E8" stop-opacity="0"/>
</linearGradient>
<clipPath id="clip0_87_4001">
<rect width="281.81" height="77" fill="white"/>
</clipPath>
<clipPath id="clip1_87_4001">
<rect width="282.438" height="77" fill="white"/>
</clipPath>
</defs>
</svg>
